<svg width="50" height="50" viewBox="0 0 50 50" fill="none" xmlns="http://www.w3.org/2000/svg">
<path d="M44.8605 12.4609C44.8923 13.0077 44.8923 13.5547 44.8923 14.1016C44.8923 30.7812 34.5814 50 15.7361 50C9.93021 50 4.53683 47.9296 0 44.336C0.824906 44.4531 1.61798 44.4922 2.47462 44.4922C7.26517 44.4922 11.6751 42.5001 15.1967 39.1016C10.6916 38.9844 6.91624 35.3516 5.61545 30.3516C6.25002 30.4687 6.8845 30.5468 7.55081 30.5468C8.47083 30.5468 9.39095 30.3905 10.2475 30.1172C5.55207 28.9452 2.03038 23.8672 2.03038 17.7344V17.5782C3.39454 18.5157 4.98098 19.1016 6.66233 19.1796C3.90216 16.914 2.09386 13.0468 2.09386 8.67179C2.09386 6.32808 2.60138 4.17964 3.48976 2.30463C8.53421 9.96087 16.1168 14.9608 24.6192 15.5078C24.4606 14.5703 24.3654 13.5938 24.3654 12.6172C24.3654 5.664 28.934 0 34.6129 0C37.5634 0 40.2284 1.52343 42.1003 3.98437C44.4162 3.43753 46.637 2.38278 48.6041 0.937507C47.8426 3.86726 46.2246 6.3282 44.099 7.89059C46.1612 7.61729 48.16 6.91401 50 5.93754C48.6043 8.43744 46.8593 10.6639 44.8605 12.4609Z" fill="#F5F5F5"/>
</svg>
